<svg width="20" height="16" viewBox="0 0 20 16" fill="none" xmlns="http://www.w3.org/2000/svg">
<path d="M0.847778 8.00287C0.847778 7.40046 1.37266 6.91211 2.02012 6.91211H5.92794C6.5754 6.91211 7.10028 7.40046 7.10028 8.00287C7.10028 8.60527 6.5754 9.09363 5.92794 9.09363H2.02012C1.37266 9.09363 0.847778 8.60531 0.847778 8.00287Z" fill="#EDEDED"/>
<path d="M4.70867 5.4578C5.10221 5.46315 5.4707 5.27854 5.68249 4.96985C7.48287 2.22823 11.3312 1.36366 14.2778 3.0388C17.2244 4.71393 18.1537 8.29435 16.3533 11.036C14.5529 13.7776 10.7046 14.6422 7.75797 12.967C6.91601 12.4884 6.20773 11.8311 5.69106 11.049C5.47927 10.7351 5.10782 10.5455 4.70941 10.548C4.06195 10.5463 3.53564 11.0333 3.53384 11.6357C3.53322 11.8426 3.59587 12.0454 3.71449 12.2205C6.21979 15.9732 11.5204 17.1258 15.5537 14.7948C19.5871 12.4639 20.8259 7.53218 18.3206 3.77949C15.8154 0.0268002 10.5148 -1.12576 6.4814 1.20516C5.3587 1.85399 4.41189 2.73492 3.71453 3.77949C3.36792 4.29068 3.53234 4.96651 4.08177 5.289C4.26941 5.39917 4.48677 5.45766 4.70867 5.4578Z" fill="#EDEDED"/>
</svg>
