<svg width="22" height="22" viewBox="0 0 19 16" fill="none" xmlns="http://www.w3.org/2000/svg">
<g clip-path="url(#clip0_21_86)">
<path d="M18.8551 18.0573L13.9582 13.8826C15.2302 12.5564 15.8556 10.864 15.705 9.15568C15.5545 7.44733 14.6395 5.85366 13.1492 4.70432C11.659 3.55498 9.70763 2.9379 7.6987 2.98073C5.68976 3.02355 3.77698 3.72299 2.356 4.93439C0.935025 6.14578 0.114569 7.77644 0.0643394 9.48907C0.0141096 11.2017 0.737949 12.8653 2.08614 14.1357C3.43433 15.4061 5.30371 16.1862 7.30763 16.3145C9.31155 16.4429 11.2967 15.9097 12.8524 14.8253L17.7493 19L18.8551 18.0573ZM7.90699 15C6.66966 15 5.46011 14.6872 4.43131 14.1011C3.40251 13.5151 2.60065 12.6822 2.12715 11.7076C1.65364 10.7331 1.52975 9.66073 1.77114 8.62616C2.01253 7.5916 2.60837 6.64129 3.48329 5.89541C4.35822 5.14953 5.47294 4.64158 6.68649 4.43579C7.90005 4.23 9.15793 4.33562 10.3011 4.73929C11.4442 5.14295 12.4213 5.82654 13.1087 6.7036C13.7961 7.58066 14.163 8.61181 14.163 9.66664C14.1612 11.0806 13.5015 12.4363 12.3286 13.4361C11.1558 14.436 9.56563 14.9984 7.90699 15Z" fill="#EDEDED"/>
</g>
<defs>
<clipPath id="clip0_21_86">
<rect width="18.7682" height="16" fill="white" transform="translate(0.0864868)"/>
</clipPath>
</defs>
</svg>
