<svg width="22" height="22" viewBox="0 0 20 16" fill="none" xmlns="http://www.w3.org/2000/svg">
<g clip-path="url(#clip0_21_89)">
<path d="M18.4655 10.8L16.4323 4.5527C15.9981 3.21631 15.0521 2.04213 13.7447 1.21702C12.4374 0.391922 10.8439 -0.036684 9.21785 -0.000577525C7.59179 0.0355289 6.02662 0.534273 4.77145 1.41628C3.51627 2.29828 2.64322 3.51286 2.29125 4.8667L0.718631 10.9C0.642536 11.1923 0.644392 11.4955 0.724062 11.7871C0.803733 12.0787 0.959184 12.3513 1.17895 12.5848C1.39871 12.8184 1.67718 13.0069 1.99381 13.1364C2.31043 13.266 2.65714 13.3333 3.00835 13.3334H5.82905C6.00853 14.0869 6.48807 14.7644 7.18641 15.251C7.88475 15.7376 8.75895 16.0034 9.66088 16.0034C10.5628 16.0034 11.437 15.7376 12.1354 15.251C12.8337 14.7644 13.3132 14.0869 13.4927 13.3334H16.2063C16.5676 13.3332 16.9241 13.2619 17.2478 13.125C17.5715 12.9881 17.8538 12.7893 18.0725 12.5441C18.2913 12.2989 18.4407 12.0139 18.509 11.7114C18.5772 11.4088 18.5626 11.097 18.4663 10.8H18.4655ZM9.66088 14.6667C9.1774 14.665 8.70634 14.536 8.31215 14.2973C7.91797 14.0586 7.61991 13.722 7.45875 13.3334H11.863C11.7019 13.722 11.4038 14.0586 11.0096 14.2973C10.6154 14.536 10.1444 14.665 9.66088 14.6667ZM16.828 11.7367C16.755 11.8192 16.6604 11.8859 16.5518 11.9316C16.4432 11.9774 16.3235 12.0008 16.2024 12H3.00835C2.89125 12 2.77565 11.9776 2.67009 11.9344C2.56452 11.8912 2.47168 11.8283 2.39842 11.7505C2.32516 11.6726 2.27335 11.5817 2.24682 11.4844C2.22028 11.3872 2.2197 11.2861 2.24511 11.1887L3.81772 5.15537C4.09483 4.09284 4.78061 3.13977 5.76606 2.44767C6.7515 1.75556 7.98005 1.36415 9.2564 1.33564C10.5328 1.30714 11.7837 1.64318 12.8103 2.29035C13.8369 2.93751 14.5802 3.85866 14.9222 4.90737L16.9554 11.1547C16.9886 11.2535 16.9944 11.3575 16.9723 11.4585C16.9502 11.5595 16.9007 11.6548 16.828 11.7367Z" fill="#EDEDED"/>
<path d="M18.545 4C18.545 5.86114 16.7459 7.5 14.3529 7.5C11.9599 7.5 10.1609 5.86114 10.1609 4C10.1609 2.13886 11.9599 0.5 14.3529 0.5C16.7459 0.5 18.545 2.13886 18.545 4Z" fill="#FD5959" stroke="#2C3E50"/>
</g>
<defs>
<clipPath id="clip0_21_89">
<rect width="18.7682" height="16" fill="white" transform="translate(0.276794)"/>
</clipPath>
</defs>
</svg>
