<svg width="22" height="22" viewBox="0 0 24 22" fill="none" xmlns="http://www.w3.org/2000/svg">
<path d="M23.1332 14.4345L20.5661 6.46378C20.018 4.75873 18.8236 3.26063 17.173 2.20792C15.5225 1.1552 13.5106 0.608356 11.4577 0.654423C9.40471 0.70049 7.42863 1.33682 5.84392 2.46213C4.25922 3.58745 3.15696 5.13708 2.71258 6.8644L0.727097 14.5621C0.631025 14.935 0.633368 15.3218 0.733954 15.6938C0.834541 16.0659 1.0308 16.4137 1.30826 16.7117C1.58572 17.0097 1.9373 17.2502 2.33705 17.4155C2.73681 17.5807 3.17454 17.6666 3.61795 17.6667H7.17918C7.40579 18.6281 8.01122 19.4924 8.8929 20.1133C9.77458 20.7341 10.8783 21.0733 12.017 21.0733C13.1557 21.0733 14.2594 20.7341 15.1411 20.1133C16.0228 19.4924 16.6282 18.6281 16.8548 17.6667H20.2808C20.7371 17.6665 21.1871 17.5755 21.5958 17.4009C22.0045 17.2262 22.3609 16.9725 22.6371 16.6597C22.9132 16.3468 23.1018 15.9832 23.188 15.5972C23.2743 15.2113 23.2558 14.8133 23.1341 14.4345H23.1332ZM12.017 19.3678C11.4066 19.3657 10.8119 19.2011 10.3142 18.8966C9.81652 18.592 9.44021 18.1625 9.23674 17.6667H14.7973C14.5938 18.1625 14.2175 18.592 13.7198 18.8966C13.2222 19.2011 12.6274 19.3657 12.017 19.3678V19.3678ZM21.0657 15.6296C20.9736 15.7348 20.8542 15.8199 20.7171 15.8783C20.5799 15.9366 20.4288 15.9665 20.2759 15.9655H3.61795C3.47011 15.9655 3.32416 15.9369 3.19088 15.8818C3.0576 15.8267 2.94039 15.7465 2.8479 15.6471C2.7554 15.5478 2.68999 15.4318 2.65649 15.3077C2.62299 15.1837 2.62225 15.0547 2.65433 14.9304L4.63982 7.2327C4.98967 5.87706 5.8555 4.66107 7.09966 3.77804C8.34382 2.89502 9.89491 2.39562 11.5063 2.35926C13.1178 2.32289 14.6971 2.75163 15.9932 3.57732C17.2893 4.40302 18.2279 5.57828 18.6596 6.91628L21.2267 14.887C21.2686 15.0131 21.2759 15.1458 21.2479 15.2747C21.22 15.4035 21.1576 15.5251 21.0657 15.6296V15.6296Z" fill="#EDEDED"/>
</svg>
