<svg width="22" height="22" viewBox="0 0 20 16" fill="none" xmlns="http://www.w3.org/2000/svg">
<g clip-path="url(#clip0_21_95)">
<path d="M15.5156 0L4.56751 0C3.53088 0.00105857 2.53707 0.352588 1.80406 0.97748C1.07106 1.60237 0.658712 2.4496 0.657471 3.33333L0.657471 12.6667C0.658712 13.5504 1.07106 14.3976 1.80406 15.0225C2.53707 15.6474 3.53088 15.9989 4.56751 16H15.5156C16.5522 15.9989 17.546 15.6474 18.279 15.0225C19.012 14.3976 19.4244 13.5504 19.4256 12.6667V3.33333C19.4244 2.4496 19.012 1.60237 18.279 0.97748C17.546 0.352588 16.5522 0.00105857 15.5156 0ZM6.13152 14.6667V14C6.13152 13.1159 6.54347 12.2681 7.27674 11.643C8.01002 11.0179 9.00455 10.6667 10.0416 10.6667C11.0786 10.6667 12.0731 11.0179 12.8064 11.643C13.5396 12.2681 13.9516 13.1159 13.9516 14V14.6667H6.13152ZM17.8616 12.6667C17.8616 13.1971 17.6145 13.7058 17.1745 14.0809C16.7345 14.456 16.1378 14.6667 15.5156 14.6667V14C15.5156 12.7623 14.9389 11.5753 13.9123 10.7002C12.8857 9.825 11.4934 9.33333 10.0416 9.33333C8.58975 9.33333 7.1974 9.825 6.17082 10.7002C5.14423 11.5753 4.56751 12.7623 4.56751 14V14.6667C3.9453 14.6667 3.34858 14.456 2.90862 14.0809C2.46865 13.7058 2.22148 13.1971 2.22148 12.6667V3.33333C2.22148 2.8029 2.46865 2.29419 2.90862 1.91912C3.34858 1.54405 3.9453 1.33333 4.56751 1.33333L15.5156 1.33333C16.1378 1.33333 16.7345 1.54405 17.1745 1.91912C17.6145 2.29419 17.8616 2.8029 17.8616 3.33333V12.6667Z" fill="#EDEDED"/>
<path d="M9.65055 3C9.03189 3 8.42711 3.1564 7.91271 3.44941C7.39831 3.74243 6.99738 4.15891 6.76063 4.64618C6.52388 5.13345 6.46193 5.66962 6.58263 6.18691C6.70332 6.70419 7.00124 7.17935 7.4387 7.55229C7.87616 7.92523 8.43353 8.1792 9.0403 8.28209C9.64708 8.38499 10.276 8.33218 10.8476 8.13035C11.4192 7.92851 11.9077 7.58672 12.2514 7.14819C12.5951 6.70966 12.7786 6.19408 12.7786 5.66667C12.7786 4.95942 12.449 4.28115 11.8624 3.78105C11.2758 3.28095 10.4802 3 9.65055 3ZM9.65055 7C9.34122 7 9.03883 6.9218 8.78163 6.77529C8.52443 6.62878 8.32397 6.42055 8.20559 6.17691C8.08721 5.93328 8.05624 5.66519 8.11659 5.40655C8.17694 5.1479 8.3259 4.91033 8.54463 4.72386C8.76336 4.53739 9.04204 4.4104 9.34543 4.35895C9.64882 4.30751 9.96329 4.33391 10.2491 4.43483C10.5349 4.53574 10.7791 4.70664 10.951 4.92591C11.1228 5.14517 11.2146 5.40296 11.2146 5.66667C11.2146 6.02029 11.0498 6.35943 10.7565 6.60948C10.4632 6.85952 10.0654 7 9.65055 7Z" fill="#EDEDED"/>
</g>
<defs>
<clipPath id="clip0_21_95">
<rect width="18.7682" height="16" fill="white" transform="translate(0.657471)"/>
</clipPath>
</defs>
</svg>
